Coordinates
version=1
nRows=14
nColumns=36
inDegrees=yes

Units are S.I. units (second, meters, Newtons, ...)
If the header above contains a line with 'inDegrees', this indicates whether rotational values are in degrees (yes) or radians (no).

endheader
time	pelvis_tilt	pelvis_list	pelvis_rotation	pelvis_tx	pelvis_ty	pelvis_tz	hip_flexion_r	hip_adduction_r	hip_rotation_r	knee_angle_r	knee_angle_r_beta	ankle_angle_r	subtalar_angle_r	mtp_angle_r	hip_flexion_l	hip_adduction_l	hip_rotation_l	knee_angle_l	knee_angle_l_beta	ankle_angle_l	subtalar_angle_l	mtp_angle_l	lumbar_extension	lumbar_bending	lumbar_rotation	arm_flex_r	arm_add_r	arm_rot_r	elbow_flex_r	pro_sup_r	arm_flex_l	arm_add_l	arm_rot_l	elbow_flex_l	pro_sup_l
      1.50416670	      1.20912386	     -0.92390501	     -0.67729875	     -0.96815883	      1.22515166	     -0.05681940	     -1.79233457	      2.11247553	     -2.33671020	      7.57959434	      0.13228888	      9.02901294	    -13.09060784	     -7.49999987	     -2.95884210	     -1.20178909	     -0.35279532	      5.02964474	      0.08778386	      9.50548772	     -4.63667516	     -7.49999987	    -13.77947330	      2.20427763	      0.72918972	      2.85438294	    -11.77718352	      0.75894631	     34.62139899	     60.95600643	      4.85608673	    -11.68024088	     13.69276925	     29.40573593	     63.47443481
      1.50833330	      1.16465233	     -0.96624301	     -0.69119083	     -0.96825101	      1.22623443	     -0.05681828	     -1.74075523	      2.16859053	     -2.39496647	      7.59196436	      0.13250477	      9.06558730	    -12.96821976	     -7.49999987	     -2.95900419	     -1.24092749	     -0.34285558	      4.90854852	      0.08567033	      9.53539446	     -4.53259458	     -7.49999987	    -13.87099793	      2.23997943	      0.75823773	      2.72362700	    -11.81284401	      0.79964473	     34.79127376	     60.92280563	      4.72738512	    -11.70411109	     13.63723820	     29.52698750	     63.38697138
      1.51250000	      1.00471152	     -0.98928415	     -0.66530410	     -0.96886959	      1.22662419	     -0.05652545	     -1.51821492	      2.20727890	     -2.35097244	      7.62376864	      0.13305986	      8.90594367	    -13.15730742	     -7.49999987	     -2.71771643	     -1.27238230	     -0.25017325	      4.98641965	      0.08702944	      9.39376679	     -4.73609757	     -7.49999987	    -13.71592524	      2.25758439	      0.73728155	      2.75434614	    -11.83592479	      1.31055963	     34.32122540	     61.16005869	      4.78033908	    -11.71532004	     13.98638372	     28.98645784	     63.92155820
      1.51666670	      1.00514073	     -1.01109166	     -0.61410017	     -0.96943617	      1.22642949	     -0.05766501	     -1.51432394	      2.23016889	     -2.39673296	      7.59112763	      0.13249017	      8.76904678	    -13.14903726	     -7.49999987	     -2.68766600	     -1.29961658	     -0.19209175	      5.01154418	      0.08746795	      9.33201160	     -4.76663213	     -7.49999987	    -13.94254593	      2.28883186	      0.74309018	      2.61614362	    -11.89624142	      1.35988767	     34.57297268	     61.16619551	      4.69046876	    -11.77388228	     13.96646038	     29.22442382	     63.94002146
      1.52083330	      0.96015019	     -1.00491825	     -0.54373130	     -0.96901712	      1.22521269	     -0.05692886	     -1.45447973	      2.23017544	     -2.41168238	      7.56934510	      0.13210999	      8.69232575	    -13.12079783	     -7.49999987	     -2.59570449	     -1.29900364	     -0.15946530	      5.07694090	      0.08860933	      9.24890525	     -4.82231905	     -7.49999987	    -14.04950853	      2.28026379	      0.71202221	      2.48573866	    -11.91333102	      1.41939859	     34.65627722	     61.17773404	      4.60457817	    -11.81073560	     13.97633500	     29.27514903	     63.97899215
      1.52500000	      0.97368690	     -1.02251201	     -0.45903675	     -0.96726465	      1.22526440	     -0.05703725	     -1.52425294	      2.23688044	     -2.64883862	      7.51152143	      0.13110078	      8.69749200	    -12.86082113	     -7.49999987	     -2.62169829	     -1.33802045	     -0.13332778	      5.10781321	      0.08914816	      9.26608260	     -4.77539987	     -7.49999987	    -14.21115058	      2.30157133	      0.61244826	      2.32684505	    -11.86393572	      1.23295994	     34.79204778	     60.97452093	      4.37775715	    -11.82131373	     13.68434263	     29.46721067	     63.55306550
      1.52916670	      0.82430959	     -1.03072854	     -0.48204732	     -0.96821185	      1.22492757	     -0.05730945	     -1.33484222	      2.24886171	     -2.49678037	      7.54443558	      0.13167524	      8.51821899	    -13.27109564	     -7.49999987	     -2.46558154	     -1.33570138	     -0.09233801	      5.09186176	      0.08886975	      9.20155407	     -5.00588529	     -7.49999987	    -14.07446656	      2.28485585	      0.67401749	      2.24373053	    -12.04893379	      2.11053974	     34.53431841	     61.52807009	      4.44275945	    -11.91843574	     14.49946359	     28.94244222	     64.98214128
      1.53333330	      0.79165114	     -1.02905013	     -0.45314064	     -0.96832784	      1.22599019	     -0.05758203	     -1.32927628	      2.23778699	     -2.63156150	      7.49071304	      0.13073761	      8.51592317	    -13.29389065	     -7.49999987	     -2.43284087	     -1.32333676	     -0.16602106	      5.09053329	      0.08884657	      9.27410434	     -4.85021886	     -7.49999987	    -14.18095318	      2.30295651	      0.68217745	      2.11565902	    -12.06024846	      1.99553407	     34.55112197	     61.50355339	      4.31160923	    -11.85068891	     14.29182066	     28.90837941	     64.98190564
      1.53750000	      0.69829443	     -1.02862460	     -0.41955120	     -0.96849368	      1.22251923	     -0.05668042	     -1.26174609	      2.27117091	     -2.57347225	      7.39892504	      0.12913560	      8.26509060	    -13.82446880	     -7.49999987	     -2.29277934	     -1.33025877	     -0.16026876	      5.12367813	      0.08942505	      9.23800559	     -5.01286274	     -7.49999987	    -14.23562824	      2.30945806	      0.70225026	      1.92099671	    -12.14821818	      2.20510883	     34.73970643	     61.67309879	      4.19567913	    -11.88587737	     14.28016470	     28.91896496	     65.45518410
      1.54166670	      0.65149093	     -1.04283847	     -0.40069544	     -0.96879021	      1.22257145	     -0.05715564	     -1.16632596	      2.29687583	     -2.78058386	      7.50643924	      0.13101208	      8.34615605	    -13.84884127	     -7.49999987	     -2.17190351	     -1.35393580	     -0.14800329	      5.19283499	      0.09063207	      9.23000973	     -5.09191585	     -7.49999987	    -14.35040070	      2.29572970	      0.70574591	      1.83221839	    -12.15887412	      2.18519940	     34.74433096	     61.66054416	      4.06302902	    -11.86686772	     14.25203874	     28.94034830	     65.46669879
      1.54583330	      0.59928825	     -1.06360771	     -0.38099926	     -0.96873498	      1.22123787	     -0.05627062	     -1.07731007	      2.35774106	     -2.89220849	      7.60378270	      0.13271104	      8.36530896	    -14.03195130	     -7.49999987	     -2.05449988	     -1.39694980	     -0.07756721	      5.26131617	      0.09182729	      9.24904982	     -5.21942908	     -7.49999987	    -14.52698359	      2.32873347	      0.71296888	      1.66245336	    -12.18235742	      2.17630373	     34.92254748	     61.57452209	      3.88798475	    -11.92305617	     14.16794852	     29.08318560	     65.29181682
      1.55000000	      0.39147726	     -1.08036287	     -0.31996365	     -0.96959721	      1.22377049	     -0.05741020	     -0.77485358	      2.37379668	     -2.98342046	      7.67422157	      0.13394043	      8.30785156	    -14.38297730	     -7.49999987	     -1.69087967	     -1.42442548	     -0.05493020	      5.40080809	      0.09426188	      9.24517683	     -5.29432177	     -7.49999987	    -14.42599867	      2.35693038	      0.68501730	      1.60206999	    -12.20546092	      2.40623933	     34.58822165	     61.61842589	      3.86184650	    -11.87027791	     14.33366800	     28.69053379	     65.50112736
      1.55416670	      0.29156630	     -1.09417199	     -0.26295880	     -0.96935665	      1.22612525	     -0.05725357	     -0.63952476	      2.37364864	     -3.04624988	      7.60057821	      0.13265511	      8.16208341	    -14.59517925	     -7.49999987	     -1.50971682	     -1.44300473	      0.02873567	      5.44631556	      0.09505614	      9.06716032	     -5.48887734	     -7.49999987	    -14.44755457	      2.36413575	      0.64029956	      1.52709318	    -12.28009954	      2.81716957	     34.48030498	     61.36677560	      3.72410547	    -11.89831153	     14.59351394	     28.56983866	     65.06170816
      1.55833330	      0.26361373	     -1.09660288	     -0.21662719	     -0.96974102	      1.22977133	     -0.05683176	     -0.58332164	      2.35732667	     -3.19153035	      7.48752809	      0.13068202	      8.05688562	    -14.58718230	     -7.49999987	     -1.45931068	     -1.45547747	     -0.00174092	      5.45278117	      0.09516898	      8.93725264	     -5.58267971	     -7.49999987	    -14.66462244	      2.33747685	      0.66013330	      1.35657973	    -12.26277119	      2.78388049	     34.56454723	     61.34017682	      3.59999871	    -11.97271093	     14.60612072	     28.67881594	     65.07201705
